<svg width="104" height="35" viewBox="0 0 104 35" fill="none" xmlns="http://www.w3.org/2000/svg">
<path d="M1.56 23V21.35C2.12 21.33 2.55 21.24 2.85 21.08C3.15 20.9 3.36 20.6 3.48 20.18C3.6 19.74 3.66 19.14 3.66 18.38V6.41C3.66 5.91 3.67 5.43 3.69 4.97C3.73 4.51 3.76 4.15 3.78 3.89C3.44 3.91 3.05 3.93 2.61 3.95C2.17 3.95 1.82 3.96 1.56 3.98V2H16.2L16.35 7.64H14.7C14.7 6.5 14.51 5.65 14.13 5.09C13.75 4.51 13.27 4.12 12.69 3.92C12.11 3.72 11.52 3.63 10.92 3.65L9.45 3.68C8.93 3.7 8.52 3.8 8.22 3.98C7.94 4.16 7.74 4.47 7.62 4.91C7.5 5.33 7.44 5.91 7.44 6.65V11.87H11.22L11.07 9.29H13.05V16.25H11.43C11.43 15.39 11.3 14.77 11.04 14.39C10.78 14.01 10.41 13.78 9.93 13.7C9.47 13.6 8.92 13.57 8.28 13.61L7.44 13.64V18.53C7.44 19.07 7.43 19.57 7.41 20.03C7.39 20.49 7.36 20.85 7.32 21.11C7.58 21.09 7.88 21.08 8.22 21.08C8.58 21.06 8.93 21.05 9.27 21.05C9.63 21.03 9.91 21.02 10.11 21.02V23H1.56ZM25.3938 23C25.3338 22.7 25.2938 22.45 25.2738 22.25C25.2738 22.03 25.2638 21.78 25.2438 21.5C24.5638 22.18 23.8338 22.68 23.0538 23C22.2938 23.32 21.5038 23.48 20.6838 23.48C19.3238 23.48 18.2738 23.11 17.5338 22.37C16.8138 21.63 16.4538 20.72 16.4538 19.64C16.4538 18.68 16.7138 17.87 17.2338 17.21C17.7538 16.53 18.4338 15.98 19.2738 15.56C20.1138 15.12 21.0438 14.79 22.0638 14.57C23.0838 14.33 24.0938 14.2 25.0938 14.18V12.53C25.0938 11.95 25.0238 11.42 24.8838 10.94C24.7638 10.44 24.5338 10.05 24.1938 9.77C23.8538 9.47 23.3538 9.32 22.6938 9.32C22.2538 9.34 21.8038 9.44 21.3438 9.62C20.9038 9.78 20.5538 10.04 20.2938 10.4C20.4538 10.58 20.5538 10.78 20.5938 11C20.6338 11.2 20.6538 11.38 20.6538 11.54C20.6538 11.9 20.5138 12.28 20.2338 12.68C19.9538 13.06 19.5038 13.24 18.8838 13.22C18.3438 13.2 17.9238 13.01 17.6238 12.65C17.3438 12.29 17.2038 11.86 17.2038 11.36C17.2038 10.6 17.4738 9.94 18.0138 9.38C18.5738 8.8 19.3238 8.35 20.2638 8.03C21.2038 7.69 22.2538 7.52 23.4138 7.52C25.1338 7.52 26.4538 7.97 27.3738 8.87C28.2938 9.77 28.7438 11.21 28.7238 13.19C28.7238 13.89 28.7238 14.53 28.7238 15.11C28.7238 15.67 28.7138 16.24 28.6938 16.82C28.6938 17.38 28.6938 18.01 28.6938 18.71C28.6938 19.01 28.6838 19.39 28.6638 19.85C28.6438 20.29 28.6138 20.73 28.5738 21.17C28.9338 21.13 29.2938 21.11 29.6538 21.11C30.0338 21.09 30.3438 21.07 30.5838 21.05V23H25.3938ZM25.0638 15.95C24.4638 15.99 23.8738 16.09 23.2938 16.25C22.7138 16.39 22.1938 16.59 21.7338 16.85C21.2738 17.11 20.9038 17.44 20.6238 17.84C20.3638 18.22 20.2438 18.66 20.2638 19.16C20.2838 19.78 20.4838 20.24 20.8638 20.54C21.2438 20.82 21.6838 20.96 22.1838 20.96C22.7638 20.96 23.2838 20.84 23.7438 20.6C24.2238 20.36 24.6638 20.04 25.0638 19.64C25.0638 19.44 25.0638 19.23 25.0638 19.01C25.0638 18.79 25.0638 18.57 25.0638 18.35C25.0638 18.07 25.0638 17.72 25.0638 17.3C25.0638 16.88 25.0638 16.43 25.0638 15.95ZM37.9819 23.48C37.4219 23.48 36.8719 23.41 36.3319 23.27C35.8119 23.13 35.3319 22.87 34.8919 22.49C34.4719 22.11 34.1319 21.55 33.8719 20.81C33.6119 20.05 33.4819 19.05 33.4819 17.81L33.5419 10.07L31.4119 10.1V8C32.0119 7.98 32.5919 7.78 33.1519 7.4C33.7119 7 34.2019 6.48 34.6219 5.84C35.0419 5.2 35.3219 4.52 35.4619 3.8H37.2919L37.2619 8H41.4919V9.92L37.2619 10.01L37.2319 17.72C37.2319 18.32 37.2819 18.88 37.3819 19.4C37.5019 19.9 37.7019 20.3 37.9819 20.6C38.2819 20.9 38.6819 21.05 39.1819 21.05C39.5619 21.05 39.9919 20.93 40.4719 20.69C40.9719 20.45 41.4719 19.97 41.9719 19.25L43.2019 20.36C42.7019 21.12 42.1819 21.71 41.6419 22.13C41.1219 22.55 40.6119 22.86 40.1119 23.06C39.6319 23.26 39.2019 23.38 38.8219 23.42C38.4419 23.46 38.1619 23.48 37.9819 23.48ZM60.1629 8.72C59.9229 6.98 59.3329 5.66 58.3929 4.76C57.4529 3.84 56.2329 3.38 54.7329 3.38C53.6729 3.38 52.7229 3.62 51.8829 4.1C51.0629 4.56 50.3629 5.2 49.7829 6.02C49.2229 6.82 48.7929 7.76 48.4929 8.84C48.1929 9.9 48.0429 11.04 48.0429 12.26C48.0429 14.04 48.3229 15.61 48.8829 16.97C49.4629 18.33 50.2629 19.4 51.2829 20.18C52.3229 20.96 53.5329 21.35 54.9129 21.35C56.1929 21.35 57.4529 21.04 58.6929 20.42C59.9529 19.78 60.9929 18.88 61.8129 17.72L63.0429 18.83C62.1029 20.11 61.1029 21.09 60.0429 21.77C58.9829 22.43 57.9429 22.88 56.9229 23.12C55.9229 23.36 55.0129 23.48 54.1929 23.48C52.6529 23.48 51.2529 23.21 49.9929 22.67C48.7529 22.11 47.6729 21.35 46.7529 20.39C45.8529 19.41 45.1529 18.28 44.6529 17C44.1729 15.7 43.9329 14.3 43.9329 12.8C43.9329 11.42 44.1429 10.06 44.5629 8.72C45.0029 7.38 45.6529 6.17 46.5129 5.09C47.3929 4.01 48.4929 3.15 49.8129 2.51C51.1329 1.85 52.6629 1.52 54.4029 1.52C55.2829 1.52 56.2029 1.66 57.1629 1.94C58.1229 2.2 59.0229 2.59 59.8629 3.11L59.7429 1.73H61.8129V8.72H60.1629ZM73.2544 23C73.1944 22.7 73.1544 22.45 73.1344 22.25C73.1344 22.03 73.1244 21.78 73.1044 21.5C72.4244 22.18 71.6944 22.68 70.9144 23C70.1544 23.32 69.3644 23.48 68.5444 23.48C67.1844 23.48 66.1344 23.11 65.3944 22.37C64.6744 21.63 64.3144 20.72 64.3144 19.64C64.3144 18.68 64.5744 17.87 65.0944 17.21C65.6144 16.53 66.2944 15.98 67.1344 15.56C67.9744 15.12 68.9044 14.79 69.9244 14.57C70.9444 14.33 71.9544 14.2 72.9544 14.18V12.53C72.9544 11.95 72.8844 11.42 72.7444 10.94C72.6244 10.44 72.3944 10.05 72.0544 9.77C71.7144 9.47 71.2144 9.32 70.5544 9.32C70.1144 9.34 69.6644 9.44 69.2044 9.62C68.7644 9.78 68.4144 10.04 68.1544 10.4C68.3144 10.58 68.4144 10.78 68.4544 11C68.4944 11.2 68.5144 11.38 68.5144 11.54C68.5144 11.9 68.3744 12.28 68.0944 12.68C67.8144 13.06 67.3644 13.24 66.7444 13.22C66.2044 13.2 65.7844 13.01 65.4844 12.65C65.2044 12.29 65.0644 11.86 65.0644 11.36C65.0644 10.6 65.3344 9.94 65.8744 9.38C66.4344 8.8 67.1844 8.35 68.1244 8.03C69.0644 7.69 70.1144 7.52 71.2744 7.52C72.9944 7.52 74.3144 7.97 75.2344 8.87C76.1544 9.77 76.6044 11.21 76.5844 13.19C76.5844 13.89 76.5844 14.53 76.5844 15.11C76.5844 15.67 76.5744 16.24 76.5544 16.82C76.5544 17.38 76.5544 18.01 76.5544 18.71C76.5544 19.01 76.5444 19.39 76.5244 19.85C76.5044 20.29 76.4744 20.73 76.4344 21.17C76.7944 21.13 77.1544 21.11 77.5144 21.11C77.8944 21.09 78.2044 21.07 78.4444 21.05V23H73.2544ZM72.9244 15.95C72.3244 15.99 71.7344 16.09 71.1544 16.25C70.5744 16.39 70.0544 16.59 69.5944 16.85C69.1344 17.11 68.7644 17.44 68.4844 17.84C68.2244 18.22 68.1044 18.66 68.1244 19.16C68.1444 19.78 68.3444 20.24 68.7244 20.54C69.1044 20.82 69.5444 20.96 70.0444 20.96C70.6244 20.96 71.1444 20.84 71.6044 20.6C72.0844 20.36 72.5244 20.04 72.9244 19.64C72.9244 19.44 72.9244 19.23 72.9244 19.01C72.9244 18.79 72.9244 18.57 72.9244 18.35C72.9244 18.07 72.9244 17.72 72.9244 17.3C72.9244 16.88 72.9244 16.43 72.9244 15.95ZM79.7189 21.41C80.2989 21.41 80.7089 21.29 80.9489 21.05C81.2089 20.79 81.3589 20.43 81.3989 19.97C81.4589 19.51 81.4889 18.99 81.4889 18.41V5.45C81.4889 5.11 81.4989 4.74 81.5189 4.34C81.5389 3.92 81.5689 3.49 81.6089 3.05C81.2689 3.07 80.8989 3.09 80.4989 3.11C80.0989 3.13 79.7589 3.15 79.4789 3.17V1.22C80.3989 1.22 81.1489 1.18 81.7289 1.1C82.3289 1 82.7889 0.879999 83.1089 0.739999C83.4489 0.599999 83.6889 0.469999 83.8289 0.349998H85.1789L85.2089 18.71C85.2089 19.03 85.1989 19.42 85.1789 19.88C85.1589 20.32 85.1189 20.75 85.0589 21.17C85.3989 21.13 85.7489 21.11 86.1089 21.11C86.4689 21.09 86.7689 21.08 87.0089 21.08V23H79.7189V21.41ZM96.1237 23.48C94.7837 23.48 93.5437 23.18 92.4037 22.58C91.2837 21.98 90.3837 21.11 89.7037 19.97C89.0437 18.81 88.7137 17.42 88.7137 15.8C88.7137 14.7 88.9037 13.66 89.2837 12.68C89.6637 11.68 90.1937 10.8 90.8737 10.04C91.5737 9.26 92.4037 8.65 93.3637 8.21C94.3237 7.75 95.3837 7.52 96.5437 7.52C97.7637 7.52 98.7937 7.71 99.6337 8.09C100.474 8.45 101.114 8.94 101.554 9.56C101.994 10.16 102.214 10.8 102.214 11.48C102.214 12.02 102.054 12.49 101.734 12.89C101.434 13.29 100.994 13.5 100.414 13.52C99.7337 13.54 99.2537 13.35 98.9737 12.95C98.7137 12.53 98.5837 12.14 98.5837 11.78C98.5837 11.58 98.6137 11.37 98.6737 11.15C98.7337 10.91 98.8337 10.69 98.9737 10.49C98.8337 10.13 98.6037 9.87 98.2837 9.71C97.9637 9.53 97.6337 9.41 97.2937 9.35C96.9537 9.29 96.6837 9.27 96.4837 9.29C95.3837 9.33 94.4737 9.83 93.7537 10.79C93.0337 11.75 92.6737 13.15 92.6737 14.99C92.6737 16.09 92.8237 17.11 93.1237 18.05C93.4437 18.97 93.9237 19.72 94.5637 20.3C95.2037 20.86 96.0237 21.15 97.0237 21.17C97.9037 21.19 98.7537 20.98 99.5737 20.54C100.394 20.08 101.064 19.49 101.584 18.77L102.784 19.88C102.124 20.82 101.414 21.55 100.654 22.07C99.8937 22.59 99.1237 22.95 98.3437 23.15C97.5837 23.37 96.8437 23.48 96.1237 23.48Z" fill="#F4F5F6"/>
<path d="M1.15589 34H0.17152L1.96378 28.9091H3.10227L4.89702 34H3.91264L2.55291 29.9531H2.51314L1.15589 34ZM1.18821 32.0039H3.87287V32.7447H1.18821V32.0039ZM4.5886 29.6822V28.9091H8.65039V29.6822H7.07689V34H6.16211V29.6822H4.5886ZM9.0697 29.6822V28.9091H13.1315V29.6822H11.558V34H10.6432V29.6822H9.0697ZM14.6967 28.9091V34H13.7745V28.9091H14.6967ZM16.2092 34H15.2248L17.0171 28.9091H18.1556L19.9503 34H18.9659L17.6062 29.9531H17.5664L16.2092 34ZM16.2415 32.0039H18.9262V32.7447H16.2415V32.0039ZM20.4864 28.9091V29.4162C20.4864 29.562 20.4583 29.7137 20.4019 29.8711C20.3472 30.0269 20.2718 30.176 20.1757 30.3185C20.0796 30.4594 19.9702 30.5804 19.8476 30.6815L19.43 30.4105C19.5211 30.273 19.6007 30.1246 19.6686 29.9656C19.7366 29.8048 19.7705 29.6233 19.7705 29.4212V28.9091H20.4864ZM23.8868 30.3086C23.8636 30.0915 23.7659 29.9225 23.5935 29.8015C23.4228 29.6805 23.2007 29.62 22.9273 29.62C22.7351 29.62 22.5702 29.649 22.4326 29.707C22.2951 29.765 22.1899 29.8437 22.1169 29.9432C22.044 30.0426 22.0067 30.1561 22.0051 30.2837C22.0051 30.3898 22.0291 30.4818 22.0772 30.5597C22.1269 30.6375 22.194 30.7038 22.2785 30.7585C22.363 30.8116 22.4567 30.8563 22.5594 30.8928C22.6622 30.9292 22.7657 30.9599 22.8701 30.9847L23.3474 31.104C23.5396 31.1488 23.7244 31.2093 23.9017 31.2855C24.0807 31.3617 24.2406 31.4579 24.3815 31.5739C24.524 31.6899 24.6367 31.8299 24.7196 31.994C24.8024 32.158 24.8439 32.3503 24.8439 32.5707C24.8439 32.869 24.7676 33.1316 24.6152 33.3587C24.4627 33.584 24.2423 33.7605 23.9539 33.8881C23.6673 34.0141 23.3201 34.0771 22.9124 34.0771C22.5163 34.0771 22.1725 34.0157 21.8808 33.8931C21.5908 33.7705 21.3637 33.5915 21.1997 33.3562C21.0373 33.1209 20.9494 32.8342 20.9362 32.4961H21.8435C21.8568 32.6734 21.9114 32.8209 22.0076 32.9386C22.1037 33.0562 22.2288 33.1441 22.3829 33.2021C22.5387 33.2601 22.7127 33.2891 22.9049 33.2891C23.1055 33.2891 23.2811 33.2592 23.4319 33.1996C23.5844 33.1383 23.7037 33.0537 23.7899 32.946C23.8761 32.8366 23.92 32.709 23.9216 32.5632C23.92 32.4306 23.881 32.3213 23.8048 32.2351C23.7286 32.1473 23.6217 32.0743 23.4841 32.0163C23.3482 31.9567 23.1891 31.9036 23.0069 31.8572L22.4277 31.7081C22.0084 31.6004 21.677 31.4371 21.4333 31.2184C21.1914 30.998 21.0704 30.7055 21.0704 30.3409C21.0704 30.041 21.1516 29.7783 21.314 29.5529C21.4781 29.3275 21.701 29.1527 21.9827 29.0284C22.2644 28.9025 22.5834 28.8395 22.9397 28.8395C23.301 28.8395 23.6175 28.9025 23.8893 29.0284C24.1628 29.1527 24.3774 29.3259 24.5331 29.5479C24.6889 29.7683 24.7693 30.0219 24.7743 30.3086H23.8868ZM31.6714 31.4545C31.6714 32.0031 31.5686 32.4729 31.3631 32.864C31.1593 33.2534 30.8809 33.5517 30.5279 33.7589C30.1766 33.966 29.778 34.0696 29.3322 34.0696C28.8865 34.0696 28.4871 33.966 28.1341 33.7589C27.7828 33.5501 27.5043 33.2509 27.2989 32.8615C27.095 32.4704 26.9931 32.0014 26.9931 31.4545C26.9931 30.906 27.095 30.437 27.2989 30.0476C27.5043 29.6565 27.7828 29.3574 28.1341 29.1502C28.4871 28.9431 28.8865 28.8395 29.3322 28.8395C29.778 28.8395 30.1766 28.9431 30.5279 29.1502C30.8809 29.3574 31.1593 29.6565 31.3631 30.0476C31.5686 30.437 31.6714 30.906 31.6714 31.4545ZM30.7442 31.4545C30.7442 31.0684 30.6837 30.7428 30.5627 30.4776C30.4434 30.2108 30.2777 30.0095 30.0655 29.8736C29.8534 29.736 29.609 29.6673 29.3322 29.6673C29.0555 29.6673 28.811 29.736 28.5989 29.8736C28.3868 30.0095 28.2203 30.2108 28.0993 30.4776C27.98 30.7428 27.9203 31.0684 27.9203 31.4545C27.9203 31.8407 27.98 32.1671 28.0993 32.4339C28.2203 32.6991 28.3868 32.9004 28.5989 33.038C28.811 33.1739 29.0555 33.2418 29.3322 33.2418C29.609 33.2418 29.8534 33.1739 30.0655 33.038C30.2777 32.9004 30.4434 32.6991 30.5627 32.4339C30.6837 32.1671 30.7442 31.8407 30.7442 31.4545ZM32.4033 34V28.9091H34.3521C34.72 28.9091 35.0258 28.9671 35.2694 29.0831C35.5147 29.1974 35.6978 29.354 35.8187 29.5529C35.9414 29.7518 36.0027 29.9772 36.0027 30.229C36.0027 30.4362 35.9629 30.6135 35.8834 30.761C35.8038 30.9068 35.6969 31.0253 35.5627 31.1165C35.4285 31.2076 35.2785 31.2731 35.1128 31.3129V31.3626C35.2934 31.3725 35.4666 31.428 35.6323 31.5291C35.7997 31.6286 35.9364 31.7694 36.0425 31.9517C36.1485 32.134 36.2016 32.3544 36.2016 32.6129C36.2016 32.8764 36.1378 33.1134 36.0102 33.3239C35.8825 33.5327 35.6903 33.6976 35.4334 33.8185C35.1766 33.9395 34.8534 34 34.464 34H32.4033ZM33.3255 33.2294H34.3173C34.6521 33.2294 34.8932 33.1656 35.0407 33.038C35.1898 32.9087 35.2644 32.743 35.2644 32.5408C35.2644 32.39 35.2271 32.2541 35.1526 32.1332C35.078 32.0105 34.9719 31.9144 34.8344 31.8448C34.6968 31.7736 34.5328 31.7379 34.3422 31.7379H33.3255V33.2294ZM33.3255 31.0742H34.2378C34.3969 31.0742 34.5402 31.0452 34.6678 30.9872C34.7954 30.9276 34.8957 30.8439 34.9686 30.7362C35.0432 30.6268 35.0805 30.4975 35.0805 30.3484C35.0805 30.1512 35.0109 29.9888 34.8717 29.8612C34.7341 29.7335 34.5294 29.6697 34.2577 29.6697H33.3255V31.0742ZM36.8638 34V28.9091H40.1749V29.6822H37.7861V31.0643H40.0034V31.8374H37.7861V33.2269H40.1948V34H36.8638ZM43.7425 30.3086C43.7193 30.0915 43.6215 29.9225 43.4492 29.8015C43.2785 29.6805 43.0564 29.62 42.783 29.62C42.5907 29.62 42.4258 29.649 42.2883 29.707C42.1508 29.765 42.0455 29.8437 41.9726 29.9432C41.8997 30.0426 41.8624 30.1561 41.8607 30.2837C41.8607 30.3898 41.8848 30.4818 41.9328 30.5597C41.9825 30.6375 42.0497 30.7038 42.1342 30.7585C42.2187 30.8116 42.3123 30.8563 42.4151 30.8928C42.5178 30.9292 42.6214 30.9599 42.7258 30.9847L43.2031 31.104C43.3953 31.1488 43.5801 31.2093 43.7574 31.2855C43.9364 31.3617 44.0963 31.4579 44.2372 31.5739C44.3797 31.6899 44.4924 31.8299 44.5752 31.994C44.6581 32.158 44.6995 32.3503 44.6995 32.5707C44.6995 32.869 44.6233 33.1316 44.4708 33.3587C44.3184 33.584 44.098 33.7605 43.8096 33.8881C43.5229 34.0141 43.1757 34.0771 42.7681 34.0771C42.372 34.0771 42.0281 34.0157 41.7365 33.8931C41.4464 33.7705 41.2194 33.5915 41.0553 33.3562C40.8929 33.1209 40.8051 32.8342 40.7919 32.4961H41.6992C41.7124 32.6734 41.7671 32.8209 41.8632 32.9386C41.9593 33.0562 42.0845 33.1441 42.2386 33.2021C42.3944 33.2601 42.5684 33.2891 42.7606 33.2891C42.9611 33.2891 43.1368 33.2592 43.2876 33.1996C43.4401 33.1383 43.5594 33.0537 43.6455 32.946C43.7317 32.8366 43.7756 32.709 43.7773 32.5632C43.7756 32.4306 43.7367 32.3213 43.6605 32.2351C43.5842 32.1473 43.4773 32.0743 43.3398 32.0163C43.2039 31.9567 43.0448 31.9036 42.8625 31.8572L42.2833 31.7081C41.8641 31.6004 41.5326 31.4371 41.289 31.2184C41.0471 30.998 40.9261 30.7055 40.9261 30.3409C40.9261 30.041 41.0073 29.7783 41.1697 29.5529C41.3338 29.3275 41.5566 29.1527 41.8384 29.0284C42.1201 28.9025 42.4391 28.8395 42.7954 28.8395C43.1567 28.8395 43.4732 28.9025 43.745 29.0284C44.0184 29.1527 44.233 29.3259 44.3888 29.5479C44.5446 29.7683 44.6249 30.0219 44.6299 30.3086H43.7425ZM46.3039 28.9091V34H45.3817V28.9091H46.3039ZM46.9389 29.6822V28.9091H51.0007V29.6822H49.4272V34H48.5124V29.6822H46.9389ZM51.2957 28.9091H52.3372L53.5826 31.1612H53.6323L54.8777 28.9091H55.9193L54.0673 32.1009V34H53.1476V32.1009L51.2957 28.9091ZM62.3863 30.6268H61.4566C61.4301 30.4743 61.3812 30.3393 61.31 30.2216C61.2387 30.1023 61.1501 30.0012 61.044 29.9183C60.9379 29.8355 60.817 29.7733 60.6811 29.7319C60.5468 29.6888 60.4018 29.6673 60.2461 29.6673C59.9693 29.6673 59.724 29.7369 59.5103 29.8761C59.2965 30.0136 59.1291 30.2158 59.0081 30.4826C58.8872 30.7478 58.8267 31.0717 58.8267 31.4545C58.8267 31.844 58.8872 32.1721 59.0081 32.4389C59.1308 32.7041 59.2981 32.9046 59.5103 33.0405C59.724 33.1747 59.9685 33.2418 60.2436 33.2418C60.396 33.2418 60.5386 33.2219 60.6711 33.1822C60.8054 33.1407 60.9255 33.0803 61.0316 33.0007C61.1393 32.9212 61.2296 32.8234 61.3025 32.7074C61.3771 32.5914 61.4285 32.4588 61.4566 32.3097L62.3863 32.3146C62.3515 32.5566 62.2761 32.7836 62.1601 32.9957C62.0458 33.2079 61.8958 33.3951 61.7102 33.5575C61.5246 33.7183 61.3075 33.8442 61.0589 33.9354C60.8103 34.0249 60.5344 34.0696 60.2311 34.0696C59.7837 34.0696 59.3843 33.966 59.033 33.7589C58.6817 33.5517 58.4049 33.2526 58.2027 32.8615C58.0006 32.4704 57.8995 32.0014 57.8995 31.4545C57.8995 30.906 58.0014 30.437 58.2052 30.0476C58.4091 29.6565 58.6866 29.3574 59.038 29.1502C59.3893 28.9431 59.787 28.8395 60.2311 28.8395C60.5145 28.8395 60.778 28.8793 61.0216 28.9588C61.2652 29.0384 61.4823 29.1552 61.6729 29.3093C61.8635 29.4618 62.0201 29.649 62.1427 29.8711C62.267 30.0915 62.3482 30.3434 62.3863 30.6268ZM63.6831 34H62.6987L64.491 28.9091H65.6295L67.4242 34H66.4399L65.0801 29.9531H65.0404L63.6831 34ZM63.7154 32.0039H66.4001V32.7447H63.7154V32.0039ZM67.9548 34V28.9091H68.877V33.2269H71.1192V34H67.9548ZM75.939 30.6268H75.0093C74.9828 30.4743 74.9339 30.3393 74.8626 30.2216C74.7914 30.1023 74.7027 30.0012 74.5967 29.9183C74.4906 29.8355 74.3696 29.7733 74.2337 29.7319C74.0995 29.6888 73.9545 29.6673 73.7987 29.6673C73.522 29.6673 73.2767 29.7369 73.0629 29.8761C72.8491 30.0136 72.6818 30.2158 72.5608 30.4826C72.4398 30.7478 72.3793 31.0717 72.3793 31.4545C72.3793 31.844 72.4398 32.1721 72.5608 32.4389C72.6834 32.7041 72.8508 32.9046 73.0629 33.0405C73.2767 33.1747 73.5211 33.2418 73.7962 33.2418C73.9487 33.2418 74.0912 33.2219 74.2238 33.1822C74.358 33.1407 74.4782 33.0803 74.5842 33.0007C74.6919 32.9212 74.7823 32.8234 74.8552 32.7074C74.9298 32.5914 74.9811 32.4588 75.0093 32.3097L75.939 32.3146C75.9042 32.5566 75.8288 32.7836 75.7128 32.9957C75.5984 33.2079 75.4485 33.3951 75.2628 33.5575C75.0772 33.7183 74.8601 33.8442 74.6116 33.9354C74.363 34.0249 74.0871 34.0696 73.7838 34.0696C73.3364 34.0696 72.937 33.966 72.5856 33.7589C72.2343 33.5517 71.9576 33.2526 71.7554 32.8615C71.5532 32.4704 71.4521 32.0014 71.4521 31.4545C71.4521 30.906 71.554 30.437 71.7579 30.0476C71.9617 29.6565 72.2393 29.3574 72.5906 29.1502C72.9419 28.9431 73.3397 28.8395 73.7838 28.8395C74.0672 28.8395 74.3307 28.8793 74.5743 28.9588C74.8179 29.0384 75.035 29.1552 75.2256 29.3093C75.4161 29.4618 75.5727 29.649 75.6954 29.8711C75.8197 30.0915 75.9009 30.3434 75.939 30.6268ZM79.8527 28.9091H80.7749V32.2351C80.7749 32.5997 80.6888 32.9203 80.5164 33.1971C80.3457 33.4738 80.1054 33.6901 79.7955 33.8459C79.4856 34 79.1235 34.0771 78.7092 34.0771C78.2933 34.0771 77.9303 34 77.6205 33.8459C77.3106 33.6901 77.0703 33.4738 76.8996 33.1971C76.7289 32.9203 76.6435 32.5997 76.6435 32.2351V28.9091H77.5658V32.158C77.5658 32.3701 77.6122 32.5591 77.705 32.7248C77.7994 32.8905 77.932 33.0206 78.1027 33.1151C78.2734 33.2079 78.4756 33.2543 78.7092 33.2543C78.9429 33.2543 79.1451 33.2079 79.3158 33.1151C79.4881 33.0206 79.6207 32.8905 79.7135 32.7248C79.8063 32.5591 79.8527 32.3701 79.8527 32.158V28.9091ZM81.6373 34V28.9091H82.5596V33.2269H84.8017V34H81.6373ZM86.3073 34H85.323L87.1152 28.9091H88.2537L90.0485 34H89.0641L87.7044 29.9531H87.6646L86.3073 34ZM86.3397 32.0039H89.0243V32.7447H86.3397V32.0039ZM89.74 29.6822V28.9091H93.8018V29.6822H92.2283V34H91.3136V29.6822H89.74ZM98.7683 31.4545C98.7683 32.0031 98.6655 32.4729 98.46 32.864C98.2562 33.2534 97.9778 33.5517 97.6248 33.7589C97.2735 33.966 96.8749 34.0696 96.4292 34.0696C95.9834 34.0696 95.584 33.966 95.231 33.7589C94.8797 33.5501 94.6013 33.2509 94.3958 32.8615C94.1919 32.4704 94.09 32.0014 94.09 31.4545C94.09 30.906 94.1919 30.437 94.3958 30.0476C94.6013 29.6565 94.8797 29.3574 95.231 29.1502C95.584 28.9431 95.9834 28.8395 96.4292 28.8395C96.8749 28.8395 97.2735 28.9431 97.6248 29.1502C97.9778 29.3574 98.2562 29.6565 98.46 30.0476C98.6655 30.437 98.7683 30.906 98.7683 31.4545ZM97.8411 31.4545C97.8411 31.0684 97.7806 30.7428 97.6596 30.4776C97.5403 30.2108 97.3746 30.0095 97.1625 29.8736C96.9503 29.736 96.7059 29.6673 96.4292 29.6673C96.1524 29.6673 95.908 29.736 95.6958 29.8736C95.4837 30.0095 95.3172 30.2108 95.1962 30.4776C95.0769 30.7428 95.0172 31.0684 95.0172 31.4545C95.0172 31.8407 95.0769 32.1671 95.1962 32.4339C95.3172 32.6991 95.4837 32.9004 95.6958 33.038C95.908 33.1739 96.1524 33.2418 96.4292 33.2418C96.7059 33.2418 96.9503 33.1739 97.1625 33.038C97.3746 32.9004 97.5403 32.6991 97.6596 32.4339C97.7806 32.1671 97.8411 31.8407 97.8411 31.4545ZM99.5002 34V28.9091H101.409C101.8 28.9091 102.128 28.977 102.394 29.1129C102.66 29.2488 102.862 29.4394 102.998 29.6847C103.135 29.9283 103.204 30.2125 103.204 30.5373C103.204 30.8638 103.134 31.1471 102.995 31.3874C102.858 31.6261 102.655 31.8108 102.386 31.9418C102.118 32.071 101.788 32.1357 101.397 32.1357H100.037V31.37H101.273C101.501 31.37 101.689 31.3385 101.834 31.2756C101.98 31.2109 102.088 31.1173 102.157 30.9947C102.229 30.8704 102.264 30.7179 102.264 30.5373C102.264 30.3567 102.229 30.2025 102.157 30.0749C102.086 29.9457 101.978 29.8479 101.832 29.7816C101.686 29.7137 101.498 29.6797 101.268 29.6797H100.422V34H99.5002ZM102.13 31.6932L103.39 34H102.361L101.123 31.6932H102.13Z" fill="#F4F5F6"/>
</svg>
