<svg width="96" height="33" viewBox="0 0 96 33" fill="none" xmlns="http://www.w3.org/2000/svg">
<path fill-rule="evenodd" clip-rule="evenodd" d="M17.8409 1.72583C16.0767 0.734618 13.9233 0.734619 12.1591 1.72583L2.95904 6.89469C1.13132 7.92156 0 9.85482 0 11.9512V22.018C0 24.1144 1.13132 26.0477 2.95904 27.0746L12.1591 32.2434C13.9233 33.2346 16.0767 33.2346 17.8409 32.2434L27.041 27.0746C28.8687 26.0477 30 24.1144 30 22.018V11.9512C30 9.85482 28.8687 7.92156 27.041 6.89469L17.8409 1.72583ZM15 26.9824C20.5228 26.9824 25 22.5053 25 16.9824C25 11.4596 20.5228 6.98242 15 6.98242C9.47715 6.98242 5 11.4596 5 16.9824C5 22.5053 9.47715 26.9824 15 26.9824Z" fill="#F4F5F6"/>
<path d="M50.922 17.5244H43.694L42.498 20.9824H38.676L45.202 2.80842H49.44L55.966 20.9824H52.118L50.922 17.5244ZM49.934 14.6124L47.308 7.02042L44.682 14.6124H49.934ZM66.3093 21.1644C64.6107 21.1644 63.0507 20.7658 61.6293 19.9684C60.208 19.1711 59.0813 18.0704 58.2493 16.6664C57.4173 15.2451 57.0013 13.6418 57.0013 11.8564C57.0013 10.0884 57.4173 8.50242 58.2493 7.09842C59.0813 5.67709 60.208 4.56775 61.6293 3.77042C63.0507 2.97309 64.6107 2.57442 66.3093 2.57442C68.0253 2.57442 69.5853 2.97309 70.9893 3.77042C72.4107 4.56775 73.5287 5.67709 74.3433 7.09842C75.1753 8.50242 75.5913 10.0884 75.5913 11.8564C75.5913 13.6418 75.1753 15.2451 74.3433 16.6664C73.5287 18.0704 72.4107 19.1711 70.9893 19.9684C69.568 20.7658 68.008 21.1644 66.3093 21.1644ZM66.3093 17.9144C67.4013 17.9144 68.3633 17.6718 69.1953 17.1864C70.0273 16.6838 70.6773 15.9731 71.1453 15.0544C71.6133 14.1358 71.8473 13.0698 71.8473 11.8564C71.8473 10.6431 71.6133 9.58575 71.1453 8.68442C70.6773 7.76575 70.0273 7.06375 69.1953 6.57842C68.3633 6.09309 67.4013 5.85042 66.3093 5.85042C65.2173 5.85042 64.2467 6.09309 63.3973 6.57842C62.5653 7.06375 61.9153 7.76575 61.4473 8.68442C60.9793 9.58575 60.7453 10.6431 60.7453 11.8564C60.7453 13.0698 60.9793 14.1358 61.4473 15.0544C61.9153 15.9731 62.5653 16.6838 63.3973 17.1864C64.2467 17.6718 65.2173 17.9144 66.3093 17.9144ZM76.8954 11.8824C76.8954 10.0971 77.2941 8.50242 78.0914 7.09842C78.9061 5.67709 80.0067 4.57642 81.3934 3.79642C82.7974 2.99909 84.3661 2.60042 86.0994 2.60042C88.1274 2.60042 89.9041 3.12042 91.4294 4.16042C92.9547 5.20042 94.0207 6.63909 94.6274 8.47642H90.4414C90.0254 7.60975 89.4361 6.95975 88.6734 6.52642C87.9281 6.09309 87.0614 5.87642 86.0734 5.87642C85.0161 5.87642 84.0714 6.12775 83.2394 6.63042C82.4247 7.11575 81.7834 7.80909 81.3154 8.71042C80.8647 9.61175 80.6394 10.6691 80.6394 11.8824C80.6394 13.0784 80.8647 14.1358 81.3154 15.0544C81.7834 15.9558 82.4247 16.6578 83.2394 17.1604C84.0714 17.6458 85.0161 17.8884 86.0734 17.8884C87.0614 17.8884 87.9281 17.6718 88.6734 17.2384C89.4361 16.7878 90.0254 16.1291 90.4414 15.2624H94.6274C94.0207 17.1171 92.9547 18.5644 91.4294 19.6044C89.9214 20.6271 88.1447 21.1384 86.0994 21.1384C84.3661 21.1384 82.7974 20.7484 81.3934 19.9684C80.0067 19.1711 78.9061 18.0704 78.0914 16.6664C77.2941 15.2624 76.8954 13.6678 76.8954 11.8824Z" fill="#F4F5F6"/>
<path d="M39.988 28.4504H38.876L38.692 28.9824H38.104L39.108 26.1864H39.76L40.764 28.9824H40.172L39.988 28.4504ZM39.836 28.0024L39.432 26.8344L39.028 28.0024H39.836ZM42.9593 26.1904V26.6424H42.2153V28.9824H41.6553V26.6424H40.9113V26.1904H42.9593ZM45.1879 26.1904V26.6424H44.4439V28.9824H43.8839V26.6424H43.1399V26.1904H45.1879ZM46.0765 26.1904V28.9824H45.5165V26.1904H46.0765ZM48.2618 28.4504H47.1498L46.9658 28.9824H46.3778L47.3818 26.1864H48.0338L49.0378 28.9824H48.4458L48.2618 28.4504ZM48.1098 28.0024L47.7058 26.8344L47.3018 28.0024H48.1098ZM49.445 26.1904H50.033L49.601 27.1984H49.217L49.445 26.1904ZM51.3186 29.0104C51.1239 29.0104 50.9479 28.9771 50.7906 28.9104C50.6359 28.8438 50.5133 28.7478 50.4226 28.6224C50.3319 28.4971 50.2853 28.3491 50.2826 28.1784H50.8826C50.8906 28.2931 50.9306 28.3838 51.0026 28.4504C51.0773 28.5171 51.1786 28.5504 51.3066 28.5504C51.4373 28.5504 51.5399 28.5198 51.6146 28.4584C51.6893 28.3944 51.7266 28.3118 51.7266 28.2104C51.7266 28.1278 51.7013 28.0598 51.6506 28.0064C51.5999 27.9531 51.5359 27.9118 51.4586 27.8824C51.3839 27.8504 51.2799 27.8158 51.1466 27.7784C50.9653 27.7251 50.8173 27.6731 50.7026 27.6224C50.5906 27.5691 50.4933 27.4904 50.4106 27.3864C50.3306 27.2798 50.2906 27.1384 50.2906 26.9624C50.2906 26.7971 50.3319 26.6531 50.4146 26.5304C50.4973 26.4078 50.6133 26.3144 50.7626 26.2504C50.9119 26.1838 51.0826 26.1504 51.2746 26.1504C51.5626 26.1504 51.7959 26.2211 51.9746 26.3624C52.1559 26.5011 52.2559 26.6958 52.2746 26.9464H51.6586C51.6533 26.8504 51.6119 26.7718 51.5346 26.7104C51.4599 26.6464 51.3599 26.6144 51.2346 26.6144C51.1253 26.6144 51.0373 26.6424 50.9706 26.6984C50.9066 26.7544 50.8746 26.8358 50.8746 26.9424C50.8746 27.0171 50.8986 27.0798 50.9466 27.1304C50.9973 27.1784 51.0586 27.2184 51.1306 27.2504C51.2053 27.2798 51.3093 27.3144 51.4426 27.3544C51.6239 27.4078 51.7719 27.4611 51.8866 27.5144C52.0013 27.5678 52.0999 27.6478 52.1826 27.7544C52.2653 27.8611 52.3066 28.0011 52.3066 28.1744C52.3066 28.3238 52.2679 28.4624 52.1906 28.5904C52.1133 28.7184 51.9999 28.8211 51.8506 28.8984C51.7013 28.9731 51.5239 29.0104 51.3186 29.0104ZM54.8812 29.0104C54.6199 29.0104 54.3799 28.9491 54.1612 28.8264C53.9426 28.7038 53.7692 28.5344 53.6412 28.3184C53.5132 28.0998 53.4492 27.8531 53.4492 27.5784C53.4492 27.3064 53.5132 27.0624 53.6412 26.8464C53.7692 26.6278 53.9426 26.4571 54.1612 26.3344C54.3799 26.2118 54.6199 26.1504 54.8812 26.1504C55.1452 26.1504 55.3852 26.2118 55.6012 26.3344C55.8199 26.4571 55.9919 26.6278 56.1172 26.8464C56.2452 27.0624 56.3092 27.3064 56.3092 27.5784C56.3092 27.8531 56.2452 28.0998 56.1172 28.3184C55.9919 28.5344 55.8199 28.7038 55.6012 28.8264C55.3826 28.9491 55.1426 29.0104 54.8812 29.0104ZM54.8812 28.5104C55.0492 28.5104 55.1972 28.4731 55.3252 28.3984C55.4532 28.3211 55.5532 28.2118 55.6252 28.0704C55.6972 27.9291 55.7332 27.7651 55.7332 27.5784C55.7332 27.3918 55.6972 27.2291 55.6252 27.0904C55.5532 26.9491 55.4532 26.8411 55.3252 26.7664C55.1972 26.6918 55.0492 26.6544 54.8812 26.6544C54.7132 26.6544 54.5639 26.6918 54.4332 26.7664C54.3052 26.8411 54.2052 26.9491 54.1332 27.0904C54.0612 27.2291 54.0252 27.3918 54.0252 27.5784C54.0252 27.7651 54.0612 27.9291 54.1332 28.0704C54.2052 28.2118 54.3052 28.3211 54.4332 28.3984C54.5639 28.4731 54.7132 28.5104 54.8812 28.5104ZM58.2298 27.5504C58.3872 27.5798 58.5165 27.6584 58.6178 27.7864C58.7192 27.9144 58.7698 28.0611 58.7698 28.2264C58.7698 28.3758 58.7325 28.5078 58.6578 28.6224C58.5858 28.7344 58.4805 28.8224 58.3418 28.8864C58.2032 28.9504 58.0392 28.9824 57.8498 28.9824H56.6458V26.1904H57.7978C57.9872 26.1904 58.1498 26.2211 58.2858 26.2824C58.4245 26.3438 58.5285 26.4291 58.5978 26.5384C58.6698 26.6478 58.7058 26.7718 58.7058 26.9104C58.7058 27.0731 58.6618 27.2091 58.5738 27.3184C58.4885 27.4278 58.3738 27.5051 58.2298 27.5504ZM57.2058 27.3424H57.7178C57.8512 27.3424 57.9538 27.3131 58.0258 27.2544C58.0978 27.1931 58.1338 27.1064 58.1338 26.9944C58.1338 26.8824 58.0978 26.7958 58.0258 26.7344C57.9538 26.6731 57.8512 26.6424 57.7178 26.6424H57.2058V27.3424ZM57.7698 28.5264C57.9058 28.5264 58.0112 28.4944 58.0858 28.4304C58.1632 28.3664 58.2018 28.2758 58.2018 28.1584C58.2018 28.0384 58.1618 27.9451 58.0818 27.8784C58.0018 27.8091 57.8938 27.7744 57.7578 27.7744H57.2058V28.5264H57.7698ZM59.6962 26.6424V27.3424H60.6362V27.7864H59.6962V28.5264H60.7562V28.9824H59.1362V26.1864H60.7562V26.6424H59.6962ZM62.1491 29.0104C61.9544 29.0104 61.7784 28.9771 61.6211 28.9104C61.4664 28.8438 61.3437 28.7478 61.2531 28.6224C61.1624 28.4971 61.1157 28.3491 61.1131 28.1784H61.7131C61.7211 28.2931 61.7611 28.3838 61.8331 28.4504C61.9077 28.5171 62.0091 28.5504 62.1371 28.5504C62.2677 28.5504 62.3704 28.5198 62.4451 28.4584C62.5197 28.3944 62.5571 28.3118 62.5571 28.2104C62.5571 28.1278 62.5317 28.0598 62.4811 28.0064C62.4304 27.9531 62.3664 27.9118 62.2891 27.8824C62.2144 27.8504 62.1104 27.8158 61.9771 27.7784C61.7957 27.7251 61.6477 27.6731 61.5331 27.6224C61.4211 27.5691 61.3237 27.4904 61.2411 27.3864C61.1611 27.2798 61.1211 27.1384 61.1211 26.9624C61.1211 26.7971 61.1624 26.6531 61.2451 26.5304C61.3277 26.4078 61.4437 26.3144 61.5931 26.2504C61.7424 26.1838 61.9131 26.1504 62.1051 26.1504C62.3931 26.1504 62.6264 26.2211 62.8051 26.3624C62.9864 26.5011 63.0864 26.6958 63.1051 26.9464H62.4891C62.4837 26.8504 62.4424 26.7718 62.3651 26.7104C62.2904 26.6464 62.1904 26.6144 62.0651 26.6144C61.9557 26.6144 61.8677 26.6424 61.8011 26.6984C61.7371 26.7544 61.7051 26.8358 61.7051 26.9424C61.7051 27.0171 61.7291 27.0798 61.7771 27.1304C61.8277 27.1784 61.8891 27.2184 61.9611 27.2504C62.0357 27.2798 62.1397 27.3144 62.2731 27.3544C62.4544 27.4078 62.6024 27.4611 62.7171 27.5144C62.8317 27.5678 62.9304 27.6478 63.0131 27.7544C63.0957 27.8611 63.1371 28.0011 63.1371 28.1744C63.1371 28.3238 63.0984 28.4624 63.0211 28.5904C62.9437 28.7184 62.8304 28.8211 62.6811 28.8984C62.5317 28.9731 62.3544 29.0104 62.1491 29.0104ZM64.1026 26.1904V28.9824H63.5426V26.1904H64.1026ZM66.4758 26.1904V26.6424H65.7318V28.9824H65.1718V26.6424H64.4278V26.1904H66.4758ZM69.0244 26.1904L68.0804 28.0104V28.9824H67.5204V28.0104L66.5724 26.1904H67.2044L67.8044 27.4664L68.4004 26.1904H69.0244ZM70.0045 27.5824C70.0045 27.3078 70.0659 27.0624 70.1885 26.8464C70.3139 26.6278 70.4832 26.4584 70.6965 26.3384C70.9125 26.2158 71.1539 26.1544 71.4205 26.1544C71.7325 26.1544 72.0059 26.2344 72.2405 26.3944C72.4752 26.5544 72.6392 26.7758 72.7325 27.0584H72.0885C72.0245 26.9251 71.9339 26.8251 71.8165 26.7584C71.7019 26.6918 71.5685 26.6584 71.4165 26.6584C71.2539 26.6584 71.1085 26.6971 70.9805 26.7744C70.8552 26.8491 70.7565 26.9558 70.6845 27.0944C70.6152 27.2331 70.5805 27.3958 70.5805 27.5824C70.5805 27.7664 70.6152 27.9291 70.6845 28.0704C70.7565 28.2091 70.8552 28.3171 70.9805 28.3944C71.1085 28.4691 71.2539 28.5064 71.4165 28.5064C71.5685 28.5064 71.7019 28.4731 71.8165 28.4064C71.9339 28.3371 72.0245 28.2358 72.0885 28.1024H72.7325C72.6392 28.3878 72.4752 28.6104 72.2405 28.7704C72.0085 28.9278 71.7352 29.0064 71.4205 29.0064C71.1539 29.0064 70.9125 28.9464 70.6965 28.8264C70.4832 28.7038 70.3139 28.5344 70.1885 28.3184C70.0659 28.1024 70.0045 27.8571 70.0045 27.5824ZM74.8428 28.4504H73.7308L73.5468 28.9824H72.9588L73.9628 26.1864H74.6148L75.6188 28.9824H75.0268L74.8428 28.4504ZM74.6908 28.0024L74.2868 26.8344L73.8828 28.0024H74.6908ZM76.4741 28.5384H77.3941V28.9824H75.9141V26.1904H76.4741V28.5384ZM77.5341 27.5824C77.5341 27.3078 77.5954 27.0624 77.7181 26.8464C77.8434 26.6278 78.0127 26.4584 78.2261 26.3384C78.4421 26.2158 78.6834 26.1544 78.9501 26.1544C79.2621 26.1544 79.5354 26.2344 79.7701 26.3944C80.0047 26.5544 80.1687 26.7758 80.2621 27.0584H79.6181C79.5541 26.9251 79.4634 26.8251 79.3461 26.7584C79.2314 26.6918 79.0981 26.6584 78.9461 26.6584C78.7834 26.6584 78.6381 26.6971 78.5101 26.7744C78.3847 26.8491 78.2861 26.9558 78.2141 27.0944C78.1447 27.2331 78.1101 27.3958 78.1101 27.5824C78.1101 27.7664 78.1447 27.9291 78.2141 28.0704C78.2861 28.2091 78.3847 28.3171 78.5101 28.3944C78.6381 28.4691 78.7834 28.5064 78.9461 28.5064C79.0981 28.5064 79.2314 28.4731 79.3461 28.4064C79.4634 28.3371 79.5541 28.2358 79.6181 28.1024H80.2621C80.1687 28.3878 80.0047 28.6104 79.7701 28.7704C79.5381 28.9278 79.2647 29.0064 78.9501 29.0064C78.6834 29.0064 78.4421 28.9464 78.2261 28.8264C78.0127 28.7038 77.8434 28.5344 77.7181 28.3184C77.5954 28.1024 77.5341 27.8571 77.5341 27.5824ZM81.2124 26.1904V27.9184C81.2124 28.1078 81.2617 28.2531 81.3604 28.3544C81.459 28.4531 81.5977 28.5024 81.7764 28.5024C81.9577 28.5024 82.0977 28.4531 82.1964 28.3544C82.295 28.2531 82.3444 28.1078 82.3444 27.9184V26.1904H82.9084V27.9144C82.9084 28.1518 82.8564 28.3531 82.7524 28.5184C82.651 28.6811 82.5137 28.8038 82.3404 28.8864C82.1697 28.9691 81.979 29.0104 81.7684 29.0104C81.5604 29.0104 81.371 28.9691 81.2004 28.8864C81.0324 28.8038 80.899 28.6811 80.8004 28.5184C80.7017 28.3531 80.6524 28.1518 80.6524 27.9144V26.1904H81.2124ZM83.9294 28.5384H84.8494V28.9824H83.3694V26.1904H83.9294V28.5384ZM86.8374 28.4504H85.7254L85.5414 28.9824H84.9534L85.9574 26.1864H86.6094L87.6134 28.9824H87.0214L86.8374 28.4504ZM86.6854 28.0024L86.2814 26.8344L85.8774 28.0024H86.6854ZM89.8087 26.1904V26.6424H89.0647V28.9824H88.5047V26.6424H87.7607V26.1904H89.8087ZM91.4333 29.0104C91.1719 29.0104 90.9319 28.9491 90.7133 28.8264C90.4946 28.7038 90.3213 28.5344 90.1933 28.3184C90.0653 28.0998 90.0013 27.8531 90.0013 27.5784C90.0013 27.3064 90.0653 27.0624 90.1933 26.8464C90.3213 26.6278 90.4946 26.4571 90.7133 26.3344C90.9319 26.2118 91.1719 26.1504 91.4333 26.1504C91.6973 26.1504 91.9373 26.2118 92.1533 26.3344C92.3719 26.4571 92.5439 26.6278 92.6693 26.8464C92.7973 27.0624 92.8613 27.3064 92.8613 27.5784C92.8613 27.8531 92.7973 28.0998 92.6693 28.3184C92.5439 28.5344 92.3719 28.7038 92.1533 28.8264C91.9346 28.9491 91.6946 29.0104 91.4333 29.0104ZM91.4333 28.5104C91.6013 28.5104 91.7493 28.4731 91.8773 28.3984C92.0053 28.3211 92.1053 28.2118 92.1773 28.0704C92.2493 27.9291 92.2853 27.7651 92.2853 27.5784C92.2853 27.3918 92.2493 27.2291 92.1773 27.0904C92.1053 26.9491 92.0053 26.8411 91.8773 26.7664C91.7493 26.6918 91.6013 26.6544 91.4333 26.6544C91.2653 26.6544 91.1159 26.6918 90.9853 26.7664C90.8573 26.8411 90.7573 26.9491 90.6853 27.0904C90.6133 27.2291 90.5773 27.3918 90.5773 27.5784C90.5773 27.7651 90.6133 27.9291 90.6853 28.0704C90.7573 28.2118 90.8573 28.3211 90.9853 28.3984C91.1159 28.4731 91.2653 28.5104 91.4333 28.5104ZM94.6379 28.9824L94.0219 27.8944H93.7579V28.9824H93.1979V26.1904H94.2459C94.4619 26.1904 94.6459 26.2291 94.7979 26.3064C94.9499 26.3811 95.0632 26.4838 95.1379 26.6144C95.2152 26.7424 95.2539 26.8864 95.2539 27.0464C95.2539 27.2304 95.2005 27.3971 95.0939 27.5464C94.9872 27.6931 94.8285 27.7944 94.6179 27.8504L95.2859 28.9824H94.6379ZM93.7579 27.4744H94.2259C94.3779 27.4744 94.4912 27.4384 94.5659 27.3664C94.6405 27.2918 94.6779 27.1891 94.6779 27.0584C94.6779 26.9304 94.6405 26.8318 94.5659 26.7624C94.4912 26.6904 94.3779 26.6544 94.2259 26.6544H93.7579V27.4744Z" fill="#F4F5F6"/>
</svg>
